<svg width="167" height="44" viewBox="0 0 167 44" fill="none" xmlns="http://www.w3.org/2000/svg">
<path d="M34.4476 0.65196L34.5933 0.58496C35.4848 1.22435 37.0903 3.16787 37.9468 4.0499C39.5235 5.67387 41.2895 7.19308 42.7331 8.93021C41.08 9.20483 34.6374 9.30027 33.9279 9.63751C34.0542 8.64491 34.6444 1.27727 34.5477 0.83135C34.5372 0.782562 34.4737 0.698856 34.4476 0.65196Z" fill="#9DEA3A"/>
<path d="M0 0.129552C2.56702 -0.158025 5.4041 0.106857 7.99197 0.219107L15.1735 0.466302C14.6499 1.57115 17.4488 14.1306 17.2064 17.0384C15.288 15.628 13.2114 13.2235 11.4757 11.5109C7.64193 7.7279 3.78537 3.96004 0 0.129552Z" fill="#9DEA3A"/>
<path d="M15.1735 0.466302C18.3524 3.72377 21.7559 6.80702 24.8443 10.1446L30.8629 4.13928C31.8253 3.16416 33.3631 1.34336 34.4476 0.65196C34.4737 0.698856 34.5372 0.782562 34.5477 0.83135C34.6444 1.27727 34.0542 8.64491 33.9279 9.63751C33.7783 11.9946 33.5666 14.3476 33.434 16.7056L14.4993 35.4154L9.5943 40.3012C8.36004 41.5354 7.08912 43.1307 5.5721 44C6.32926 42.0198 7.35527 40.1383 8.23399 38.2075L14.5108 24.4776C15.457 22.3975 16.703 20.2408 17.3511 18.0542C17.4409 17.7509 17.4554 17.4945 17.3116 17.2027C17.2809 17.1403 17.2486 17.0938 17.2064 17.0384C17.4488 14.1306 14.6499 1.57115 15.1735 0.466302Z" fill="#5AC902"/>
<path d="M51.8978 30.7774V12.6907H63.6135V15.4372H55.1982V19.6763H58.712C60.1056 19.6763 61.3006 19.903 62.297 20.3563C63.2992 20.8038 64.0672 21.4367 64.601 22.2551C65.1347 23.0734 65.4016 24.0361 65.4016 25.1429C65.4016 26.2557 65.1347 27.236 64.601 28.0838C64.0672 28.9257 63.2992 29.5851 62.297 30.062C61.3006 30.5389 60.1056 30.7774 58.712 30.7774H51.8978ZM55.1982 28.0926H58.712C59.4474 28.0926 60.0701 27.9543 60.5801 27.6776C61.0901 27.4008 61.4756 27.0358 61.7365 26.5825C62.0034 26.1291 62.1368 25.6375 62.1368 25.1076C62.1368 24.3422 61.8403 23.6916 61.2473 23.1559C60.6602 22.6142 59.8151 22.3434 58.712 22.3434H55.1982V28.0926Z" fill="#1C1C1C"/>
<path d="M70.1475 35.8643C69.7086 35.8643 69.3024 35.8289 68.9288 35.7583C68.5611 35.6935 68.2675 35.617 68.0481 35.5287L68.7953 33.0382C69.2638 33.1736 69.6819 33.2384 70.0496 33.2325C70.4173 33.2266 70.7405 33.1118 71.0193 32.8881C71.3039 32.6702 71.5441 32.3052 71.7398 31.793L72.0156 31.06L67.0606 17.2123H70.4766L73.6257 27.4568H73.768L76.926 17.2123H80.3509L74.88 32.42C74.625 33.1383 74.287 33.7535 73.8659 34.2658C73.4448 34.7839 72.9289 35.1784 72.318 35.4492C71.7131 35.7259 70.9896 35.8643 70.1475 35.8643Z" fill="#1C1C1C"/>
<path d="M90.4431 27.0594L94.4996 17.2123H97.0972L91.5729 30.7774H89.3223L83.9225 17.2123H86.4934L90.4431 27.0594ZM85.6839 17.2123V30.7774H82.5793V17.2123H85.6839ZM95.3358 30.7774V17.2123H98.4137V30.7774H95.3358Z" fill="#1C1C1C"/>
<path d="M118.082 21.734C118.082 23.6828 117.715 25.3519 116.979 26.7414C116.25 28.125 115.253 29.1848 113.99 29.9207C112.733 30.6567 111.307 31.0246 109.711 31.0246C108.116 31.0246 106.687 30.6567 105.424 29.9207C104.166 29.1789 103.17 28.1162 102.435 26.7326C101.705 25.3431 101.34 23.6769 101.34 21.734C101.34 19.7852 101.705 18.119 102.435 16.7354C103.17 15.346 104.166 14.2833 105.424 13.5473C106.687 12.8114 108.116 12.4434 109.711 12.4434C111.307 12.4434 112.733 12.8114 113.99 13.5473C115.253 14.2833 116.25 15.346 116.979 16.7354C117.715 18.119 118.082 19.7852 118.082 21.734ZM114.764 21.734C114.764 20.3622 114.548 19.2053 114.115 18.2633C113.688 17.3154 113.095 16.6 112.336 16.1173C111.576 15.6286 110.702 15.3842 109.711 15.3842C108.721 15.3842 107.846 15.6286 107.087 16.1173C106.328 16.6 105.732 17.3154 105.299 18.2633C104.872 19.2053 104.659 20.3622 104.659 21.734C104.659 23.1058 104.872 24.2657 105.299 25.2136C105.732 26.1556 106.328 26.8709 107.087 27.3596C107.846 27.8424 108.721 28.0838 109.711 28.0838C110.702 28.0838 111.576 27.8424 112.336 27.3596C113.095 26.8709 113.688 26.1556 114.115 25.2136C114.548 24.2657 114.764 23.1058 114.764 21.734Z" fill="#1C1C1C"/>
<path d="M127.26 35.3874V12.6907H130.49V35.3874H127.26ZM127.26 31.0423C126.258 31.0423 125.342 30.8745 124.512 30.5389C123.681 30.2033 122.964 29.7264 122.359 29.1082C121.76 28.49 121.294 27.7541 120.962 26.9004C120.636 26.0408 120.473 25.0899 120.473 24.0478C120.473 23.0057 120.636 22.0549 120.962 21.1953C121.294 20.3357 121.76 19.5968 122.359 18.9786C122.964 18.3545 123.681 17.8747 124.512 17.5391C125.342 17.2035 126.258 17.0357 127.26 17.0357H127.945V31.0423H127.26ZM127.26 28.4635H127.661V19.6145H127.26C126.691 19.6145 126.187 19.7322 125.748 19.9677C125.315 20.1974 124.951 20.5182 124.654 20.9304C124.363 21.3366 124.141 21.8076 123.987 22.3434C123.839 22.8733 123.764 23.4414 123.764 24.0478C123.764 24.8544 123.898 25.5933 124.165 26.2645C124.432 26.9298 124.823 27.4627 125.339 27.863C125.861 28.2634 126.501 28.4635 127.26 28.4635ZM130.49 31.0423H129.805V17.0357H130.49C131.492 17.0357 132.408 17.2035 133.238 17.5391C134.069 17.8747 134.783 18.3545 135.382 18.9786C135.987 19.5968 136.453 20.3357 136.779 21.1953C137.111 22.0549 137.277 23.0057 137.277 24.0478C137.277 25.0899 137.111 26.0408 136.779 26.9004C136.453 27.7541 135.987 28.49 135.382 29.1082C134.783 29.7264 134.069 30.2033 133.238 30.5389C132.408 30.8745 131.492 31.0423 130.49 31.0423ZM130.49 28.4635C131.065 28.4635 131.569 28.3487 132.002 28.1191C132.435 27.8895 132.797 27.5716 133.087 27.1653C133.384 26.7591 133.606 26.291 133.754 25.7611C133.903 25.2254 133.977 24.6543 133.977 24.0478C133.977 23.2412 133.846 22.5024 133.585 21.8312C133.324 21.16 132.933 20.6242 132.411 20.2238C131.895 19.8176 131.255 19.6145 130.49 19.6145H130.089V28.4635H130.49Z" fill="#1C1C1C"/>
<path d="M143.099 26.45L148.57 17.2123H151.879V30.7774H148.766V21.5309L143.313 30.7774H139.995V17.2123H143.099V26.45Z" fill="#1C1C1C"/>
<path d="M161.147 31.0423C159.783 31.0423 158.611 30.745 157.633 30.1503C156.66 29.5557 155.91 28.7344 155.382 27.6864C154.86 26.6325 154.599 25.4197 154.599 24.0478C154.599 22.6701 154.866 21.4544 155.4 20.4005C155.934 19.3407 156.687 18.5164 157.659 17.9277C158.638 17.333 159.794 17.0357 161.129 17.0357C162.238 17.0357 163.219 17.2388 164.073 17.6451C164.933 18.0454 165.618 18.6136 166.128 19.3495C166.638 20.0796 166.929 20.9333 167 21.9106H163.922C163.798 21.2571 163.501 20.7125 163.032 20.2768C162.57 19.8353 161.95 19.6145 161.173 19.6145C160.515 19.6145 159.937 19.7911 159.439 20.1444C158.94 20.4917 158.552 20.9922 158.273 21.6457C158 22.2992 157.864 23.0823 157.864 23.9949C157.864 24.9192 158 25.714 158.273 26.3793C158.546 27.0387 158.929 27.548 159.421 27.9072C159.919 28.2604 160.503 28.437 161.173 28.437C161.648 28.437 162.072 28.3487 162.445 28.1721C162.825 27.9896 163.142 27.7276 163.397 27.3861C163.652 27.0446 163.827 26.6296 163.922 26.1409H167C166.923 27.1006 166.638 27.9513 166.146 28.6932C165.654 29.4291 164.984 30.0061 164.136 30.4241C163.288 30.8362 162.291 31.0423 161.147 31.0423Z" fill="#1C1C1C"/>
</svg>
