<?xml version="1.0" encoding="utf-8"?><svg viewBox="0 0 64 64" xmlns="http://www.w3.org/2000/svg" xmlns:xlink="http://www.w3.org/1999/xlink"><style>:root>svg{display:none}:root>svg:target{display:block}</style><svg viewBox="0 0 24 24" id="alert" xmlns="http://www.w3.org/2000/svg"><path fill-rule="evenodd" clip-rule="evenodd" d="M12 3a9 9 0 100 18 9 9 0 000-18zM1 12C1 5.925 5.925 1 12 1s11 4.925 11 11-4.925 11-11 11S1 18.075 1 12z"/><path fill-rule="evenodd" clip-rule="evenodd" d="M12 7a1 1 0 011 1v4a1 1 0 11-2 0V8a1 1 0 011-1zM11 16a1 1 0 011-1h.01a1 1 0 110 2H12a1 1 0 01-1-1z"/></svg><svg viewBox="0 0 24 24" id="brand" xmlns="http://www.w3.org/2000/svg"><path fill-rule="evenodd" clip-rule="evenodd" d="M11.553 1.106a1 1 0 01.894 0l10 5a1 1 0 010 1.788l-10 5a1 1 0 01-.894 0l-10-5a1 1 0 010-1.788l10-5zM4.236 7L12 10.882 19.764 7 12 3.118 4.236 7zM1.106 16.553a1 1 0 011.341-.448L12 20.883l9.553-4.777a1 1 0 01.894 1.79l-10 5a1 1 0 01-.894 0l-10-5a1 1 0 01-.447-1.342z"/><path fill-rule="evenodd" clip-rule="evenodd" d="M1.106 11.553a1 1 0 011.341-.448L12 15.883l9.553-4.777a1 1 0 01.894 1.79l-10 5a1 1 0 01-.894 0l-10-5a1 1 0 01-.447-1.342z"/></svg><svg viewBox="0 0 11 8" id="check" xmlns="http://www.w3.org/2000/svg"><path d="M9.5 1L4 6.5 1.5 4"/></svg><svg viewBox="0 0 24 24" id="coins" xmlns="http://www.w3.org/2000/svg"><g clip-path="url(#dclip0_50_2742)" fill-rule="evenodd" clip-rule="evenodd"><path d="M8 2a6 6 0 100 12A6 6 0 008 2zM0 8a8 8 0 1116 0A8 8 0 010 8z"/><path d="M18.634 9.44a1 1 0 011.365-.366A8 8 0 119.074 19.999a1 1 0 011.733-.998A6 6 0 1019 10.806a1 1 0 01-.367-1.365zM6 6a1 1 0 011-1h1a1 1 0 011 1v4a1 1 0 11-2 0V7a1 1 0 01-1-1z"/><path d="M16.593 13.593a1 1 0 011.414 0l.7.7a1 1 0 010 1.414l-2.8 2.8a1 1 0 01-1.414-1.414L16.586 15a1 1 0 01.007-1.407z"/></g><defs><clipPath id="dclip0_50_2742"><path d="M0 0h24v24H0z"/></clipPath></defs></svg><svg viewBox="0 0 25 24" id="eye-closed" xmlns="http://www.w3.org/2000/svg"><g opacity=".9"><path fill-rule="evenodd" clip-rule="evenodd" d="M4.97 4.47a.75.75 0 011.06 0l14 14a.75.75 0 11-1.06 1.06l-14-14a.75.75 0 010-1.06z"/><path d="M4.3 3.764l16.4 16.398"/><circle cx="12.5" cy="12" r="3.237"/><path d="M21.095 13.633c-1.949 2.017-5.114 4.55-8.595 4.55-3.48 0-6.646-2.533-8.595-4.55a2.316 2.316 0 010-3.266C5.854 8.35 9.02 5.817 12.5 5.817c3.48 0 6.646 2.533 8.595 4.55.898.93.898 2.336 0 3.266z"/></g></svg><svg viewBox="0 0 25 24" id="eye-open" xmlns="http://www.w3.org/2000/svg"><g opacity=".9"><circle cx="12.5" cy="12" r="3.237"/><path d="M21.095 13.633c-1.949 2.017-5.114 4.55-8.595 4.55-3.48 0-6.646-2.533-8.595-4.55a2.316 2.316 0 010-3.266C5.854 8.35 9.02 5.817 12.5 5.817c3.48 0 6.646 2.533 8.595 4.55.898.93.898 2.336 0 3.266z"/></g></svg><svg viewBox="0 0 64 64" id="favicon" xmlns="http://www.w3.org/2000/svg"><path d="M51.591.948l.218-.097c1.335.93 3.74 3.757 5.023 5.04 2.361 2.362 5.006 4.572 7.168 7.098-2.476.4-12.125.539-13.187 1.03.189-1.445 1.073-12.161.928-12.81-.016-.07-.11-.192-.15-.26zM0 .188C3.845-.23 8.094.155 11.97.318l10.755.36c-.784 1.607 3.407 19.876 3.044 24.105-2.873-2.051-5.983-5.549-8.582-8.04C11.445 11.241 5.669 5.76 0 .188z"/><path d="M22.725.678c4.76 4.738 9.858 9.223 14.483 14.078l9.014-8.735c1.441-1.419 3.745-4.067 5.369-5.073.039.069.134.19.15.261.145.649-.74 11.365-.928 12.81-.224 3.428-.542 6.85-.74 10.28L21.715 51.513l-7.346 7.107c-1.849 1.795-3.752 4.116-6.024 5.38 1.134-2.88 2.67-5.617 3.987-8.425l9.4-19.971c1.417-3.026 3.283-6.163 4.254-9.343.134-.441.156-.814-.06-1.239a1.376 1.376 0 00-.157-.239c.363-4.23-3.829-22.498-3.044-24.105z"/></svg><svg viewBox="0 0 16 22" id="fire" xmlns="http://www.w3.org/2000/svg"><path d="M7.667 21.061a7.673 7.673 0 01-5.415-2.242 7.515 7.515 0 01-1.658-2.492A7.564 7.564 0 010 13.395c0-1.246.45-2.578 1.17-3.48a.962.962 0 011.063-.306.981.981 0 01.642.91c0 .384.153.748.422 1.017a1.464 1.464 0 002.031 0c.269-.269.422-.633.422-1.016 0-.844-.23-1.275-.585-1.927-.086-.163-.182-.335-.268-.517-1.179-2.348-.48-4.61 2.147-6.9a.934.934 0 01.939-.182.948.948 0 01.632.719c.432 2.146 1.735 4.264 3.489 5.673 2.108 1.687 3.23 3.766 3.23 6.009a7.66 7.66 0 01-.585 2.932 7.663 7.663 0 01-1.658 2.492 7.514 7.514 0 01-2.492 1.658 7.662 7.662 0 01-2.932.584zm-5.712-8.155a2.8 2.8 0 00-.038.489c0 .757.143 1.495.44 2.204.288.7.71 1.332 1.246 1.869.537.536 1.16.958 1.87 1.245a5.78 5.78 0 004.398 0c.7-.287 1.332-.709 1.869-1.245a5.606 5.606 0 001.245-1.87c.288-.708.432-1.446.432-2.203 0-1.64-.872-3.21-2.511-4.524-1.649-1.322-2.961-3.162-3.7-5.146-1.264 1.533-1.034 2.616-.603 3.488.086.163.163.326.25.47.402.747.814 1.514.814 2.837 0 .9-.345 1.734-.978 2.367-1.274 1.265-3.469 1.274-4.734.019z"/></svg><svg viewBox="0 0 22 22" id="is_availability" xmlns="http://www.w3.org/2000/svg"><rect x=".5" y=".5" width="21" height="21" rx="3.5"/><rect x=".5" y=".5" width="21" height="21" rx="3.5"/><path d="M15.833 7.5l-5.958 6.417L7.167 11"/></svg><svg viewBox="0 0 24 25" id="package" xmlns="http://www.w3.org/2000/svg"><path fill-rule="evenodd" clip-rule="evenodd" d="M6.634 4.21A1 1 0 018 3.844l9 5.19a1 1 0 11-1 1.732l-9-5.19a1 1 0 01-.366-1.366z"/><path fill-rule="evenodd" clip-rule="evenodd" d="M10.502 1.903a3 3 0 012.996 0h.002l7 4A3 3 0 0122 8.5V16.5a3 3 0 01-1.5 2.595l-.004.002-6.996 3.998-.002.001a3 3 0 01-2.996 0l-.002-.001-6.996-3.998-.004-.002A3 3 0 012 16.5V8.499a3 3 0 011.5-2.595l.004-.002 6.998-4zM12 3.502a1 1 0 00-.5.134l-.004.002L4.5 7.636h-.002A1 1 0 004 8.502v7.998a1 1 0 00.498.864H4.5l7 4a1 1 0 001 0l.004-.001 6.996-3.998.002-.001a1.001 1.001 0 00.498-.864V8.5a1 1 0 00-.498-.864l-.002-.001-7-4a1 1 0 00-.5-.134z"/><path fill-rule="evenodd" clip-rule="evenodd" d="M2.404 6.96a1 1 0 011.367-.366L12 11.354l8.23-4.76a1 1 0 111 1.731l-8.73 5.05a1 1 0 01-1 0l-8.73-5.05a1 1 0 01-.366-1.366z"/><path fill-rule="evenodd" clip-rule="evenodd" d="M12 11.5a1 1 0 011 1v10.08a1 1 0 11-2 0V12.5a1 1 0 011-1z"/></svg><svg viewBox="0 0 22 22" id="product" xmlns="http://www.w3.org/2000/svg"><path d="M18.333-.003H3.667A3.667 3.667 0 000 3.663V18.33a3.667 3.667 0 003.667 3.667h14.666A3.667 3.667 0 0022 18.33V3.663a3.667 3.667 0 00-3.667-3.666zm1.223 18.333a1.222 1.222 0 01-1.223 1.222H3.667a1.222 1.222 0 01-1.223-1.222V3.663a1.222 1.222 0 011.223-1.222h14.666a1.222 1.222 0 011.223 1.222V18.33zM17.11 6.108a6.11 6.11 0 11-12.222 0 1.222 1.222 0 112.444 0 3.667 3.667 0 007.334 0 1.222 1.222 0 112.444 0z"/></svg><svg viewBox="0 0 9 5" id="select-arrow" xmlns="http://www.w3.org/2000/svg"><path d="M8.822.99l-3.99 3.883a.42.42 0 01-.154.098A.528.528 0 014.5 5a.544.544 0 01-.178-.029.413.413 0 01-.154-.098L.166.991A.539.539 0 010 .588c0-.162.06-.3.178-.415A.578.578 0 01.594 0c.158 0 .297.058.415.173L4.5 3.56 7.99.173A.566.566 0 018.4.012c.163 0 .303.057.422.172a.545.545 0 010 .807z"/></svg><svg viewBox="0 0 24 25" id="time" xmlns="http://www.w3.org/2000/svg"><path fill-rule="evenodd" clip-rule="evenodd" d="M12 3.5a9 9 0 100 18 9 9 0 000-18zm-11 9c0-6.075 4.925-11 11-11s11 4.925 11 11-4.925 11-11 11-11-4.925-11-11z"/><path fill-rule="evenodd" clip-rule="evenodd" d="M12 5.5a1 1 0 011 1v6a1 1 0 01-1.447.894l-4-2a1 1 0 11.894-1.788L11 10.882V6.5a1 1 0 011-1z"/></svg><svg viewBox="0 0 24 24" id="truck" xmlns="http://www.w3.org/2000/svg"><path d="M7.5 21C5.57 21 4 19.43 4 17.5S5.57 14 7.5 14s3.5 1.57 3.5 3.5S9.43 21 7.5 21zm0-5c-.83 0-1.5.67-1.5 1.5S6.67 19 7.5 19 9 18.33 9 17.5 8.33 16 7.5 16z"/><path d="M22.62 11.75c-.25-.61-.62-1.16-1.08-1.63l-1.83-1.83C19.52 8.11 19.27 8 19 8h-4V5c0-.55-.45-1-1-1H2c-.55 0-1 .45-1 1v12c0 .55.45 1 1 1h3.05c-.02-.16-.05-.33-.05-.5 0-.54.13-1.04.35-1.5H3V6h10v10H9.65c.22.46.35.96.35 1.5 0 .17-.03.34-.05.5H15c.55 0 1-.45 1-1s-.45-1-1-1v-6h3.59l1.54 1.54c.28.28.5.61.65.98.14.36.22.74.22 1.14V16h-1c-.55 0-1 .45-1 1s.45 1 1 1h2c.55 0 1-.45 1-1v-3.34c0-.66-.13-1.31-.38-1.91z"/><path d="M17.5 21c-1.93 0-3.5-1.57-3.5-3.5s1.57-3.5 3.5-3.5 3.5 1.57 3.5 3.5-1.57 3.5-3.5 3.5zm0-5c-.83 0-1.5.67-1.5 1.5s.67 1.5 1.5 1.5 1.5-.67 1.5-1.5-.67-1.5-1.5-1.5z"/></svg></svg>