<?xml version="1.0" encoding="utf-8"?><svg viewBox="0 0 29 29" xmlns="http://www.w3.org/2000/svg" xmlns:xlink="http://www.w3.org/1999/xlink"><style>:root>svg{display:none}:root>svg:target{display:block}</style><svg viewBox="0 0 24 24" id="alert" xmlns="http://www.w3.org/2000/svg"><path fill-rule="evenodd" clip-rule="evenodd" d="M12 3a9 9 0 100 18 9 9 0 000-18zM1 12C1 5.925 5.925 1 12 1s11 4.925 11 11-4.925 11-11 11S1 18.075 1 12z"/><path fill-rule="evenodd" clip-rule="evenodd" d="M12 7a1 1 0 011 1v4a1 1 0 11-2 0V8a1 1 0 011-1zM11 16a1 1 0 011-1h.01a1 1 0 110 2H12a1 1 0 01-1-1z"/></svg><svg viewBox="0 0 24 24" id="brand" xmlns="http://www.w3.org/2000/svg"><path fill-rule="evenodd" clip-rule="evenodd" d="M11.553 1.106a1 1 0 01.894 0l10 5a1 1 0 010 1.788l-10 5a1 1 0 01-.894 0l-10-5a1 1 0 010-1.788l10-5zM4.236 7L12 10.882 19.764 7 12 3.118 4.236 7zM1.106 16.553a1 1 0 011.341-.448L12 20.883l9.553-4.777a1 1 0 01.894 1.79l-10 5a1 1 0 01-.894 0l-10-5a1 1 0 01-.447-1.342z"/><path fill-rule="evenodd" clip-rule="evenodd" d="M1.106 11.553a1 1 0 011.341-.448L12 15.883l9.553-4.777a1 1 0 01.894 1.79l-10 5a1 1 0 01-.894 0l-10-5a1 1 0 01-.447-1.342z"/></svg><svg viewBox="0 0 24 24" id="coins" xmlns="http://www.w3.org/2000/svg"><g clip-path="url(#cclip0_50_2742)" fill-rule="evenodd" clip-rule="evenodd"><path d="M8 2a6 6 0 100 12A6 6 0 008 2zM0 8a8 8 0 1116 0A8 8 0 010 8z"/><path d="M18.634 9.44a1 1 0 011.365-.366A8 8 0 119.074 19.999a1 1 0 011.733-.998A6 6 0 1019 10.806a1 1 0 01-.367-1.365zM6 6a1 1 0 011-1h1a1 1 0 011 1v4a1 1 0 11-2 0V7a1 1 0 01-1-1z"/><path d="M16.593 13.593a1 1 0 011.414 0l.7.7a1 1 0 010 1.414l-2.8 2.8a1 1 0 01-1.414-1.414L16.586 15a1 1 0 01.007-1.407z"/></g><defs><clipPath id="cclip0_50_2742"><path d="M0 0h24v24H0z"/></clipPath></defs></svg><svg viewBox="0 0 16 22" id="fire" xmlns="http://www.w3.org/2000/svg"><path d="M7.667 21.061a7.673 7.673 0 01-5.415-2.242 7.515 7.515 0 01-1.658-2.492A7.564 7.564 0 010 13.395c0-1.246.45-2.578 1.17-3.48a.962.962 0 011.063-.306.981.981 0 01.642.91c0 .384.153.748.422 1.017a1.464 1.464 0 002.031 0c.269-.269.422-.633.422-1.016 0-.844-.23-1.275-.585-1.927-.086-.163-.182-.335-.268-.517-1.179-2.348-.48-4.61 2.147-6.9a.934.934 0 01.939-.182.948.948 0 01.632.719c.432 2.146 1.735 4.264 3.489 5.673 2.108 1.687 3.23 3.766 3.23 6.009a7.66 7.66 0 01-.585 2.932 7.663 7.663 0 01-1.658 2.492 7.514 7.514 0 01-2.492 1.658 7.662 7.662 0 01-2.932.584zm-5.712-8.155a2.8 2.8 0 00-.038.489c0 .757.143 1.495.44 2.204.288.7.71 1.332 1.246 1.869.537.536 1.16.958 1.87 1.245a5.78 5.78 0 004.398 0c.7-.287 1.332-.709 1.869-1.245a5.606 5.606 0 001.245-1.87c.288-.708.432-1.446.432-2.203 0-1.64-.872-3.21-2.511-4.524-1.649-1.322-2.961-3.162-3.7-5.146-1.264 1.533-1.034 2.616-.603 3.488.086.163.163.326.25.47.402.747.814 1.514.814 2.837 0 .9-.345 1.734-.978 2.367-1.274 1.265-3.469 1.274-4.734.019z"/></svg><svg viewBox="0 0 24 25" id="package" xmlns="http://www.w3.org/2000/svg"><path fill-rule="evenodd" clip-rule="evenodd" d="M6.634 4.21A1 1 0 018 3.844l9 5.19a1 1 0 11-1 1.732l-9-5.19a1 1 0 01-.366-1.366z"/><path fill-rule="evenodd" clip-rule="evenodd" d="M10.502 1.903a3 3 0 012.996 0h.002l7 4A3 3 0 0122 8.5V16.5a3 3 0 01-1.5 2.595l-.004.002-6.996 3.998-.002.001a3 3 0 01-2.996 0l-.002-.001-6.996-3.998-.004-.002A3 3 0 012 16.5V8.499a3 3 0 011.5-2.595l.004-.002 6.998-4zM12 3.502a1 1 0 00-.5.134l-.004.002L4.5 7.636h-.002A1 1 0 004 8.502v7.998a1 1 0 00.498.864H4.5l7 4a1 1 0 001 0l.004-.001 6.996-3.998.002-.001a1.001 1.001 0 00.498-.864V8.5a1 1 0 00-.498-.864l-.002-.001-7-4a1 1 0 00-.5-.134z"/><path fill-rule="evenodd" clip-rule="evenodd" d="M2.404 6.96a1 1 0 011.367-.366L12 11.354l8.23-4.76a1 1 0 111 1.731l-8.73 5.05a1 1 0 01-1 0l-8.73-5.05a1 1 0 01-.366-1.366z"/><path fill-rule="evenodd" clip-rule="evenodd" d="M12 11.5a1 1 0 011 1v10.08a1 1 0 11-2 0V12.5a1 1 0 011-1z"/></svg><svg viewBox="0 0 29 29" id="product" xmlns="http://www.w3.org/2000/svg"><path d="M21.75 3.625H7.25A3.625 3.625 0 003.625 7.25v14.5a3.625 3.625 0 003.625 3.625h14.5a3.625 3.625 0 003.625-3.625V7.25a3.625 3.625 0 00-3.625-3.625zm1.208 18.125a1.208 1.208 0 01-1.208 1.208H7.25a1.208 1.208 0 01-1.208-1.208V7.25A1.208 1.208 0 017.25 6.042h14.5a1.208 1.208 0 011.208 1.208v14.5zM20.542 9.667a6.042 6.042 0 01-12.084 0 1.208 1.208 0 112.417 0 3.625 3.625 0 107.25 0 1.208 1.208 0 112.417 0z"/></svg><svg viewBox="0 0 24 25" id="time" xmlns="http://www.w3.org/2000/svg"><path fill-rule="evenodd" clip-rule="evenodd" d="M12 3.5a9 9 0 100 18 9 9 0 000-18zm-11 9c0-6.075 4.925-11 11-11s11 4.925 11 11-4.925 11-11 11-11-4.925-11-11z"/><path fill-rule="evenodd" clip-rule="evenodd" d="M12 5.5a1 1 0 011 1v6a1 1 0 01-1.447.894l-4-2a1 1 0 11.894-1.788L11 10.882V6.5a1 1 0 011-1z"/></svg><svg viewBox="0 0 24 24" id="truck" xmlns="http://www.w3.org/2000/svg"><path d="M7.5 21C5.57 21 4 19.43 4 17.5S5.57 14 7.5 14s3.5 1.57 3.5 3.5S9.43 21 7.5 21zm0-5c-.83 0-1.5.67-1.5 1.5S6.67 19 7.5 19 9 18.33 9 17.5 8.33 16 7.5 16z"/><path d="M22.62 11.75c-.25-.61-.62-1.16-1.08-1.63l-1.83-1.83C19.52 8.11 19.27 8 19 8h-4V5c0-.55-.45-1-1-1H2c-.55 0-1 .45-1 1v12c0 .55.45 1 1 1h3.05c-.02-.16-.05-.33-.05-.5 0-.54.13-1.04.35-1.5H3V6h10v10H9.65c.22.46.35.96.35 1.5 0 .17-.03.34-.05.5H15c.55 0 1-.45 1-1s-.45-1-1-1v-6h3.59l1.54 1.54c.28.28.5.61.65.98.14.36.22.74.22 1.14V16h-1c-.55 0-1 .45-1 1s.45 1 1 1h2c.55 0 1-.45 1-1v-3.34c0-.66-.13-1.31-.38-1.91z"/><path d="M17.5 21c-1.93 0-3.5-1.57-3.5-3.5s1.57-3.5 3.5-3.5 3.5 1.57 3.5 3.5-1.57 3.5-3.5 3.5zm0-5c-.83 0-1.5.67-1.5 1.5s.67 1.5 1.5 1.5 1.5-.67 1.5-1.5-.67-1.5-1.5-1.5z"/></svg></svg>