<svg width="26" height="27" viewBox="0 0 26 27" fill="none" xmlns="http://www.w3.org/2000/svg">
<path d="M13 14.1972C14.0713 14.1972 15.1185 13.8795 16.0093 13.2843C16.9001 12.6891 17.5943 11.8431 18.0043 10.8534C18.4143 9.8636 18.5215 8.77449 18.3125 7.72376C18.1035 6.67303 17.5877 5.70787 16.8301 4.95034C16.0726 4.1928 15.1074 3.67692 14.0567 3.46791C13.006 3.25891 11.9169 3.36618 10.9271 3.77615C9.93732 4.18613 9.09136 4.88039 8.49617 5.77116C7.90097 6.66193 7.58329 7.70918 7.58329 8.7805C7.58329 10.2171 8.15398 11.5948 9.1698 12.6107C10.1856 13.6265 11.5634 14.1972 13 14.1972ZM13 5.5305C13.6427 5.5305 14.2711 5.72111 14.8056 6.07822C15.34 6.43534 15.7566 6.94292 16.0026 7.53678C16.2486 8.13064 16.3129 8.78411 16.1875 9.41454C16.0621 10.045 15.7526 10.6241 15.2981 11.0786C14.8435 11.5331 14.2644 11.8427 13.634 11.9681C13.0036 12.0935 12.3501 12.0291 11.7562 11.7831C11.1624 11.5371 10.6548 11.1206 10.2977 10.5861C9.94057 10.0516 9.74996 9.42329 9.74996 8.7805C9.74996 7.91855 10.0924 7.0919 10.7019 6.4824C11.3114 5.87291 12.138 5.5305 13 5.5305ZM20.5833 19.6138V21.7805C20.5833 22.0678 20.4692 22.3434 20.266 22.5465C20.0628 22.7497 19.7873 22.8638 19.5 22.8638C19.2126 22.8638 18.9371 22.7497 18.7339 22.5465C18.5308 22.3434 18.4166 22.0678 18.4166 21.7805V19.6138C18.4166 19.3265 18.3025 19.051 18.0993 18.8478C17.8962 18.6446 17.6206 18.5305 17.3333 18.5305H8.66663C8.37931 18.5305 8.10376 18.6446 7.90059 18.8478C7.69743 19.051 7.58329 19.3265 7.58329 19.6138V21.7805C7.58329 22.0678 7.46916 22.3434 7.26599 22.5465C7.06283 22.7497 6.78728 22.8638 6.49996 22.8638C6.21264 22.8638 5.93709 22.7497 5.73393 22.5465C5.53076 22.3434 5.41663 22.0678 5.41663 21.7805V19.6138C5.41663 18.7519 5.75904 17.9252 6.36853 17.3157C6.97802 16.7062 7.80467 16.3638 8.66663 16.3638H17.3333C18.1952 16.3638 19.0219 16.7062 19.6314 17.3157C20.2409 17.9252 20.5833 18.7519 20.5833 19.6138Z" fill="#FFA132"/>
</svg>
