<svg width="26" height="27" viewBox="0 0 26 27" fill="none" xmlns="http://www.w3.org/2000/svg">
<path d="M13 14.5833C14.0713 14.5833 15.1186 14.2657 16.0094 13.6705C16.9001 13.0753 17.5944 12.2293 18.0044 11.2395C18.4143 10.2498 18.5216 9.16066 18.3126 8.10993C18.1036 7.0592 17.5877 6.09404 16.8302 5.33651C16.0726 4.57897 15.1075 4.06309 14.0568 3.85408C13.006 3.64508 11.9169 3.75235 10.9272 4.16232C9.93739 4.5723 9.09142 5.26656 8.49623 6.15733C7.90104 7.0481 7.58335 8.09535 7.58335 9.16667C7.58335 10.6033 8.15404 11.981 9.16986 12.9968C10.1857 14.0127 11.5634 14.5833 13 14.5833ZM13 5.91667C13.6428 5.91667 14.2712 6.10728 14.8056 6.46439C15.3401 6.82151 15.7566 7.32909 16.0026 7.92295C16.2486 8.51681 16.313 9.17027 16.1876 9.80071C16.0622 10.4312 15.7526 11.0102 15.2981 11.4648C14.8436 11.9193 14.2645 12.2288 13.6341 12.3542C13.0036 12.4796 12.3502 12.4153 11.7563 12.1693C11.1624 11.9233 10.6549 11.5067 10.2977 10.9723C9.94063 10.4378 9.75002 9.80946 9.75002 9.16667C9.75002 8.30472 10.0924 7.47807 10.7019 6.86857C11.3114 6.25908 12.1381 5.91667 13 5.91667ZM20.5834 20V22.1667C20.5834 22.454 20.4692 22.7295 20.2661 22.9327C20.0629 23.1359 19.7873 23.25 19.5 23.25C19.2127 23.25 18.9372 23.1359 18.734 22.9327C18.5308 22.7295 18.4167 22.454 18.4167 22.1667V20C18.4167 19.7127 18.3026 19.4371 18.0994 19.234C17.8962 19.0308 17.6207 18.9167 17.3334 18.9167H8.66669C8.37937 18.9167 8.10382 19.0308 7.90065 19.234C7.69749 19.4371 7.58335 19.7127 7.58335 20V22.1667C7.58335 22.454 7.46922 22.7295 7.26605 22.9327C7.06289 23.1359 6.78734 23.25 6.50002 23.25C6.2127 23.25 5.93715 23.1359 5.73399 22.9327C5.53082 22.7295 5.41669 22.454 5.41669 22.1667V20C5.41669 19.138 5.7591 18.3114 6.36859 17.7019C6.97808 17.0924 7.80473 16.75 8.66669 16.75H17.3334C18.1953 16.75 19.022 17.0924 19.6314 17.7019C20.2409 18.3114 20.5834 19.138 20.5834 20Z" fill="white"/>
</svg>
