<svg width="1504" height="245" viewBox="0 0 1504 245" fill="none" xmlns="http://www.w3.org/2000/svg">
<rect width="1504" height="244.059" rx="20" fill="#E9E9E9"/>
<path d="M697.011 116.393H699.466V123.711H699.562L704.591 116.393H706.744V128.029H704.284V120.706H704.199L699.142 128.029H697.011V116.393ZM708.283 125.558H710.629C710.641 125.846 710.769 126.073 711.016 126.24C711.262 126.406 711.58 126.49 711.97 126.49C712.364 126.49 712.696 126.399 712.964 126.217C713.233 126.031 713.368 125.766 713.368 125.421C713.368 125.209 713.315 125.026 713.209 124.87C713.103 124.711 712.955 124.586 712.766 124.495C712.576 124.404 712.357 124.359 712.107 124.359H710.851V122.774H712.107C712.482 122.774 712.769 122.687 712.97 122.512C713.175 122.338 713.277 122.12 713.277 121.859C713.277 121.564 713.171 121.327 712.959 121.149C712.75 120.967 712.468 120.876 712.112 120.876C711.752 120.876 711.453 120.957 711.214 121.12C710.98 121.279 710.858 121.488 710.851 121.745H708.516C708.523 121.223 708.68 120.77 708.987 120.387C709.298 120.005 709.714 119.709 710.237 119.501C710.764 119.293 711.353 119.189 712.004 119.189C712.716 119.189 713.33 119.289 713.845 119.49C714.364 119.687 714.762 119.969 715.038 120.336C715.319 120.704 715.459 121.141 715.459 121.649C715.459 122.111 715.307 122.497 715.004 122.808C714.701 123.118 714.277 123.34 713.732 123.473V123.564C714.091 123.586 714.417 123.683 714.709 123.853C715 124.024 715.233 124.259 715.408 124.558C715.582 124.853 715.669 125.204 715.669 125.609C715.669 126.151 715.51 126.615 715.192 127.001C714.877 127.387 714.442 127.685 713.885 127.893C713.332 128.098 712.697 128.2 711.982 128.2C711.285 128.2 710.66 128.099 710.107 127.899C709.557 127.694 709.12 127.395 708.794 127.001C708.472 126.607 708.302 126.126 708.283 125.558ZM721.097 128.2C720.214 128.2 719.451 128.012 718.807 127.637C718.167 127.259 717.672 126.732 717.324 126.058C716.975 125.38 716.801 124.594 716.801 123.7C716.801 122.798 716.975 122.01 717.324 121.336C717.672 120.658 718.167 120.132 718.807 119.757C719.451 119.378 720.214 119.189 721.097 119.189C721.979 119.189 722.741 119.378 723.381 119.757C724.025 120.132 724.521 120.658 724.869 121.336C725.218 122.01 725.392 122.798 725.392 123.7C725.392 124.594 725.218 125.38 724.869 126.058C724.521 126.732 724.025 127.259 723.381 127.637C722.741 128.012 721.979 128.2 721.097 128.2ZM721.108 126.325C721.509 126.325 721.845 126.211 722.114 125.984C722.383 125.753 722.585 125.439 722.722 125.041C722.862 124.643 722.932 124.19 722.932 123.683C722.932 123.175 722.862 122.723 722.722 122.325C722.585 121.927 722.383 121.613 722.114 121.382C721.845 121.151 721.509 121.035 721.108 121.035C720.703 121.035 720.362 121.151 720.085 121.382C719.813 121.613 719.606 121.927 719.466 122.325C719.33 122.723 719.261 123.175 719.261 123.683C719.261 124.19 719.33 124.643 719.466 125.041C719.606 125.439 719.813 125.753 720.085 125.984C720.362 126.211 720.703 126.325 721.108 126.325ZM734.222 116.098L734.96 117.677C734.714 117.882 734.441 118.033 734.142 118.132C733.843 118.226 733.485 118.289 733.068 118.319C732.655 118.349 732.152 118.37 731.557 118.382C730.883 118.389 730.333 118.497 729.909 118.706C729.485 118.914 729.163 119.242 728.943 119.689C728.723 120.132 728.58 120.711 728.511 121.427H728.597C728.858 120.893 729.225 120.48 729.699 120.189C730.176 119.897 730.765 119.751 731.466 119.751C732.208 119.751 732.858 119.914 733.415 120.24C733.975 120.565 734.411 121.033 734.722 121.643C735.032 122.253 735.188 122.984 735.188 123.836C735.188 124.723 735.013 125.493 734.665 126.149C734.32 126.8 733.83 127.306 733.193 127.666C732.557 128.022 731.799 128.2 730.92 128.2C730.038 128.2 729.277 128.014 728.636 127.643C728 127.272 727.508 126.724 727.159 126.001C726.814 125.278 726.642 124.387 726.642 123.331V122.615C726.642 120.512 727.051 118.954 727.869 117.939C728.688 116.923 729.89 116.408 731.477 116.393C731.909 116.385 732.299 116.384 732.648 116.387C732.996 116.391 733.301 116.374 733.562 116.336C733.828 116.298 734.047 116.219 734.222 116.098ZM730.932 126.325C731.303 126.325 731.621 126.228 731.886 126.035C732.155 125.842 732.362 125.565 732.506 125.206C732.653 124.846 732.727 124.416 732.727 123.916C732.727 123.42 732.653 122.999 732.506 122.654C732.362 122.306 732.155 122.041 731.886 121.859C731.617 121.677 731.295 121.586 730.92 121.586C730.64 121.586 730.388 121.637 730.165 121.74C729.941 121.842 729.75 121.993 729.591 122.194C729.436 122.391 729.314 122.635 729.227 122.927C729.144 123.215 729.102 123.545 729.102 123.916C729.102 124.662 729.263 125.251 729.585 125.683C729.911 126.111 730.36 126.325 730.932 126.325ZM736.794 131.302V119.302H739.18V120.768H739.288C739.394 120.533 739.548 120.295 739.749 120.052C739.953 119.806 740.218 119.601 740.544 119.439C740.874 119.272 741.283 119.189 741.771 119.189C742.408 119.189 742.995 119.355 743.533 119.689C744.071 120.018 744.5 120.516 744.822 121.183C745.144 121.846 745.305 122.677 745.305 123.677C745.305 124.651 745.148 125.473 744.834 126.143C744.523 126.81 744.099 127.315 743.561 127.66C743.027 128.001 742.429 128.171 741.766 128.171C741.296 128.171 740.896 128.094 740.567 127.939C740.241 127.783 739.974 127.588 739.766 127.353C739.557 127.115 739.398 126.874 739.288 126.632H739.214V131.302H736.794ZM739.163 123.666C739.163 124.185 739.235 124.637 739.379 125.024C739.523 125.41 739.732 125.711 740.004 125.927C740.277 126.139 740.608 126.245 740.999 126.245C741.393 126.245 741.726 126.137 741.999 125.921C742.271 125.702 742.478 125.399 742.618 125.012C742.762 124.622 742.834 124.173 742.834 123.666C742.834 123.162 742.764 122.719 742.624 122.336C742.483 121.954 742.277 121.654 742.004 121.439C741.732 121.223 741.396 121.115 740.999 121.115C740.605 121.115 740.271 121.219 739.999 121.427C739.73 121.635 739.523 121.931 739.379 122.314C739.235 122.696 739.163 123.147 739.163 123.666ZM749.408 128.194C748.851 128.194 748.355 128.098 747.919 127.904C747.483 127.707 747.139 127.418 746.885 127.035C746.635 126.649 746.51 126.168 746.51 125.592C746.51 125.107 746.599 124.7 746.777 124.37C746.955 124.041 747.197 123.776 747.504 123.575C747.811 123.374 748.16 123.223 748.55 123.12C748.944 123.018 749.357 122.946 749.788 122.904C750.296 122.851 750.705 122.802 751.016 122.757C751.326 122.707 751.552 122.635 751.692 122.541C751.832 122.446 751.902 122.306 751.902 122.12V122.086C751.902 121.726 751.788 121.448 751.561 121.251C751.338 121.054 751.019 120.956 750.607 120.956C750.171 120.956 749.824 121.052 749.567 121.245C749.309 121.435 749.139 121.673 749.055 121.961L746.817 121.779C746.93 121.249 747.154 120.791 747.487 120.404C747.821 120.014 748.25 119.715 748.777 119.507C749.307 119.295 749.921 119.189 750.618 119.189C751.103 119.189 751.567 119.245 752.01 119.359C752.457 119.473 752.853 119.649 753.197 119.887C753.546 120.126 753.821 120.433 754.021 120.808C754.222 121.179 754.322 121.624 754.322 122.143V128.029H752.027V126.819H751.959C751.819 127.092 751.631 127.332 751.396 127.541C751.161 127.745 750.879 127.906 750.55 128.024C750.22 128.137 749.839 128.194 749.408 128.194ZM750.101 126.524C750.457 126.524 750.771 126.454 751.044 126.314C751.317 126.17 751.531 125.976 751.686 125.734C751.841 125.492 751.919 125.217 751.919 124.91V123.984C751.843 124.033 751.739 124.079 751.607 124.12C751.478 124.158 751.332 124.194 751.169 124.228C751.006 124.259 750.843 124.287 750.68 124.314C750.518 124.336 750.37 124.357 750.237 124.376C749.953 124.418 749.705 124.484 749.493 124.575C749.281 124.666 749.116 124.789 748.999 124.944C748.881 125.096 748.822 125.285 748.822 125.512C748.822 125.842 748.942 126.094 749.18 126.268C749.423 126.439 749.73 126.524 750.101 126.524ZM755.632 128.029L758.683 123.49L755.649 119.302H758.411L760.678 122.717H761.053V119.302H763.473V122.717H763.837L766.104 119.302H768.865L765.837 123.49L768.882 128.029H766.058L763.814 124.62H763.473V128.029H761.053V124.62H760.712L758.456 128.029H755.632ZM773.912 128.2C773.014 128.2 772.241 128.018 771.594 127.654C770.95 127.287 770.454 126.768 770.105 126.098C769.757 125.423 769.582 124.626 769.582 123.706C769.582 122.808 769.757 122.02 770.105 121.342C770.454 120.664 770.944 120.135 771.577 119.757C772.213 119.378 772.959 119.189 773.815 119.189C774.391 119.189 774.927 119.281 775.423 119.467C775.923 119.649 776.359 119.923 776.73 120.291C777.105 120.658 777.397 121.12 777.605 121.677C777.813 122.23 777.918 122.878 777.918 123.62V124.285H770.548V122.785H775.639C775.639 122.437 775.563 122.128 775.412 121.859C775.26 121.59 775.05 121.38 774.781 121.228C774.516 121.073 774.207 120.995 773.855 120.995C773.488 120.995 773.162 121.081 772.878 121.251C772.598 121.418 772.378 121.643 772.219 121.927C772.06 122.207 771.978 122.52 771.974 122.865V124.291C771.974 124.723 772.054 125.096 772.213 125.41C772.376 125.724 772.605 125.967 772.901 126.137C773.196 126.308 773.546 126.393 773.952 126.393C774.221 126.393 774.467 126.355 774.69 126.279C774.914 126.204 775.105 126.09 775.264 125.939C775.423 125.787 775.545 125.601 775.628 125.382L777.866 125.529C777.753 126.067 777.52 126.537 777.168 126.939C776.819 127.336 776.368 127.647 775.815 127.87C775.266 128.09 774.632 128.2 773.912 128.2ZM785.571 122.7V124.603H781.014V122.7H785.571ZM781.81 119.302V128.029H779.497V119.302H781.81ZM787.088 119.302V128.029H784.793V119.302H787.088ZM791.278 124.836L794.42 119.302H796.807V128.029H794.5V122.478L791.369 128.029H788.966V119.302H791.278V124.836ZM802.724 128.2C801.827 128.2 801.054 128.018 800.406 127.654C799.762 127.287 799.266 126.768 798.918 126.098C798.569 125.423 798.395 124.626 798.395 123.706C798.395 122.808 798.569 122.02 798.918 121.342C799.266 120.664 799.757 120.135 800.389 119.757C801.026 119.378 801.772 119.189 802.628 119.189C803.204 119.189 803.74 119.281 804.236 119.467C804.736 119.649 805.171 119.923 805.543 120.291C805.918 120.658 806.209 121.12 806.418 121.677C806.626 122.23 806.73 122.878 806.73 123.62V124.285H799.361V122.785H804.452C804.452 122.437 804.376 122.128 804.224 121.859C804.073 121.59 803.863 121.38 803.594 121.228C803.329 121.073 803.02 120.995 802.668 120.995C802.3 120.995 801.974 121.081 801.69 121.251C801.41 121.418 801.19 121.643 801.031 121.927C800.872 122.207 800.791 122.52 800.787 122.865V124.291C800.787 124.723 800.866 125.096 801.026 125.41C801.188 125.724 801.418 125.967 801.713 126.137C802.009 126.308 802.359 126.393 802.764 126.393C803.033 126.393 803.279 126.355 803.503 126.279C803.726 126.204 803.918 126.09 804.077 125.939C804.236 125.787 804.357 125.601 804.44 125.382L806.679 125.529C806.565 126.067 806.332 126.537 805.98 126.939C805.632 127.336 805.181 127.647 804.628 127.87C804.079 128.09 803.444 128.2 802.724 128.2Z" fill="black"/>
</svg>
