<svg width="24" height="24" viewBox="0 0 24 24" fill="none" xmlns="http://www.w3.org/2000/svg">
<g clip-path="url(#clip0_50_2742)">
<path fill-rule="evenodd" clip-rule="evenodd" d="M8 2C4.68629 2 2 4.68629 2 8C2 11.3137 4.68629 14 8 14C11.3137 14 14 11.3137 14 8C14 4.68629 11.3137 2 8 2ZM0 8C0 3.58172 3.58172 0 8 0C12.4183 0 16 3.58172 16 8C16 12.4183 12.4183 16 8 16C3.58172 16 0 12.4183 0 8Z" fill="#101010"/>
<path fill-rule="evenodd" clip-rule="evenodd" d="M18.6337 9.44072C18.9094 8.9622 19.5208 8.7978 19.9994 9.07354C21.0631 9.68647 21.9715 10.536 22.6542 11.5563C23.3369 12.5767 23.7756 13.7405 23.9364 14.9576C24.0971 16.1747 23.9756 17.4124 23.5812 18.575C23.1869 19.7376 22.5302 20.7939 21.6621 21.662C20.794 22.5301 19.7378 23.1867 18.5752 23.5811C17.4126 23.9755 16.1748 24.097 14.9577 23.9362C13.7406 23.7755 12.5768 23.3368 11.5565 22.6541C10.5361 21.9714 9.68659 21.063 9.07366 19.9993C8.79792 19.5207 8.96232 18.9093 9.44084 18.6335C9.91937 18.3578 10.5308 18.5222 10.8066 19.0007C11.2663 19.7985 11.9034 20.4798 12.6687 20.9918C13.4339 21.5039 14.3067 21.8329 15.2196 21.9535C16.1324 22.074 17.0607 21.9829 17.9327 21.6871C18.8046 21.3913 19.5968 20.8988 20.2479 20.2478C20.899 19.5967 21.3915 18.8045 21.6872 17.9326C21.983 17.0606 22.0742 16.1323 21.9536 15.2195C21.833 14.3066 21.504 13.4338 20.992 12.6685C20.4799 11.9033 19.7986 11.2661 19.0008 10.8064C18.5223 10.5307 18.3579 9.91925 18.6337 9.44072Z" fill="#101010"/>
<path fill-rule="evenodd" clip-rule="evenodd" d="M6 6C6 5.44772 6.44772 5 7 5H8C8.55228 5 9 5.44772 9 6V10C9 10.5523 8.55228 11 8 11C7.44772 11 7 10.5523 7 10V7C6.44772 7 6 6.55228 6 6Z" fill="#101010"/>
<path fill-rule="evenodd" clip-rule="evenodd" d="M16.5931 13.5929C16.9836 13.2024 17.6168 13.2024 18.0073 13.5929L18.7073 14.2929C18.8948 14.4804 19.0002 14.7348 19.0002 15C19.0002 15.2652 18.8948 15.5196 18.7073 15.7071L15.9073 18.5071C15.5168 18.8976 14.8836 18.8976 14.4931 18.5071C14.1026 18.1166 14.1026 17.4834 14.4931 17.0929L16.586 15C16.2026 14.6089 16.2049 13.981 16.5931 13.5929Z" fill="#101010"/>
</g>
<defs>
<clipPath id="clip0_50_2742">
<rect width="24" height="24" fill="white"/>
</clipPath>
</defs>
</svg>
