<svg width="64" height="64" viewBox="0 0 64 64" fill="none" xmlns="http://www.w3.org/2000/svg">
<path d="M51.591 0.948307L51.8092 0.850853C53.1444 1.78087 55.5489 4.60782 56.8318 5.89077C59.193 8.25291 61.838 10.4627 64 12.9894C61.5241 13.3889 51.8753 13.5277 50.8127 14.0182C51.0019 12.5744 51.8858 1.85785 51.7411 1.20924C51.7252 1.13827 51.6301 1.01652 51.591 0.948307Z" fill="#EA993A"/>
<path d="M0 0.18844C3.84454 -0.229855 8.09354 0.155428 11.9693 0.318701L22.7248 0.678258C21.9406 2.28531 26.1325 20.5536 25.7695 24.7832C22.8963 22.7316 19.7863 19.2342 17.1868 16.7431C11.4451 11.2406 5.66923 5.76005 0 0.18844Z" fill="#EA993A"/>
<path d="M22.7246 0.678253C27.4855 5.41638 32.583 9.90112 37.2083 14.7558L46.2221 6.02077C47.6635 4.60241 49.9666 1.95397 51.5907 0.948304C51.6298 1.01652 51.725 1.13827 51.7408 1.20924C51.8856 1.85784 51.0016 12.5744 50.8125 14.0182C50.5885 17.4467 50.2714 20.8693 50.0728 24.2991L21.715 51.5133L14.3689 58.6199C12.5204 60.4151 10.617 62.7356 8.34497 64C9.47893 61.1197 11.0156 58.383 12.3316 55.5745L21.7321 35.6037C23.1493 32.5782 25.0154 29.4411 25.9859 26.2606C26.1205 25.8195 26.1422 25.4466 25.9269 25.0221C25.8808 24.9313 25.8325 24.8638 25.7693 24.7832C26.1322 20.5536 21.9404 2.28531 22.7246 0.678253Z" fill="#C97902"/>
</svg>
