<svg width="16" height="22" viewBox="0 0 16 22" fill="none" xmlns="http://www.w3.org/2000/svg">
<path d="M7.66667 21.0613C6.66042 21.0613 5.67333 20.8696 4.73417 20.4767C3.795 20.0838 2.96125 19.528 2.25208 18.8188C1.53333 18.1 0.9775 17.2663 0.594167 16.3271C0.20125 15.388 0 14.4009 0 13.3946C0 12.1488 0.450417 10.8167 1.16917 9.91588C1.42792 9.59963 1.84958 9.47505 2.23292 9.60922C2.61625 9.75296 2.875 10.1171 2.875 10.5196C2.875 10.903 3.02833 11.2671 3.29667 11.5355C3.84292 12.0817 4.78208 12.0817 5.32833 11.5355C5.59667 11.2671 5.75 10.903 5.75 10.5196C5.75 9.6763 5.52 9.24505 5.16542 8.59338C5.07917 8.43046 4.98333 8.25797 4.89708 8.07588C3.71833 5.72796 4.41792 3.4663 7.04375 1.17588C7.3025 0.945882 7.65708 0.878798 7.98292 0.993798C8.30875 1.09921 8.54833 1.37713 8.61542 1.71255C9.04667 3.85922 10.35 5.97713 12.1038 7.38588C14.2121 9.07255 15.3333 11.1521 15.3333 13.3946C15.3333 14.4105 15.1321 15.3975 14.7487 16.3271C14.3654 17.2663 13.8 18.1 13.0908 18.8188C12.3721 19.5375 11.5383 20.0934 10.5992 20.4767C9.66958 20.86 8.6825 21.0613 7.66667 21.0613ZM1.955 12.9059C1.92625 13.0688 1.91667 13.2317 1.91667 13.3946C1.91667 14.1517 2.06042 14.8896 2.3575 15.5988C2.645 16.2984 3.06667 16.9309 3.60333 17.4675C4.14 18.0042 4.76292 18.4259 5.47208 18.7134C6.88083 19.298 8.47167 19.2884 9.87083 18.7134C10.5704 18.4259 11.2029 18.0042 11.7396 17.4675C12.2762 16.9309 12.6979 16.308 12.9854 15.5988C13.2729 14.8896 13.4167 14.1517 13.4167 13.3946C13.4167 11.7559 12.5446 10.1842 10.9058 8.8713C9.2575 7.5488 7.94458 5.7088 7.20667 3.72505C5.94167 5.25838 6.17167 6.3413 6.60292 7.21338C6.68917 7.3763 6.76583 7.53922 6.85208 7.68297C7.25458 8.43047 7.66667 9.19713 7.66667 10.5196C7.66667 11.4205 7.32167 12.2542 6.68917 12.8867C5.41458 14.1517 3.22 14.1613 1.955 12.9059Z" fill="#101010"/>
</svg>
