<svg width="24" height="25" viewBox="0 0 24 25" fill="none" xmlns="http://www.w3.org/2000/svg">
<path fill-rule="evenodd" clip-rule="evenodd" d="M6.63372 4.21033C6.90961 3.73189 7.52112 3.56771 7.99956 3.8436L16.9996 9.0336C17.478 9.3095 17.6422 9.92101 17.3663 10.3994C17.0904 10.8779 16.4789 11.0421 16.0004 10.7662L7.00044 5.57617C6.52201 5.30027 6.35782 4.68876 6.63372 4.21033Z" fill="white"/>
<path fill-rule="evenodd" clip-rule="evenodd" d="M10.5021 1.90264C10.9577 1.64014 11.4742 1.50195 12 1.50195C12.5258 1.50195 13.0424 1.64015 13.4979 1.90267C13.4986 1.90307 13.4993 1.90348 13.5 1.90388L20.5 5.90387C20.9556 6.16692 21.334 6.54515 21.5973 7.00062C21.8606 7.45609 21.9995 7.97279 22 8.49888V16.5009C21.9995 17.027 21.8606 17.5437 21.5973 17.9992C21.334 18.4547 20.9556 18.8329 20.5 19.0959L20.4961 19.0981L13.5 23.0959C13.4994 23.0963 13.4988 23.0966 13.4982 23.097C13.0426 23.3596 12.5259 23.4979 12 23.4979C11.4741 23.4979 10.9575 23.3596 10.5019 23.097C10.5012 23.0966 10.5006 23.0963 10.5 23.0959L3.50386 19.0981L3.5 19.0959C3.04439 18.8329 2.66597 18.4547 2.40269 17.9992C2.13941 17.5437 2.00054 17.027 2 16.5009V8.49888C2.00054 7.97279 2.13941 7.45609 2.40269 7.00062C2.66597 6.54515 3.04439 6.16692 3.5 5.90388L3.50386 5.90165L10.5021 1.90264ZM12 3.50195C11.8245 3.50195 11.652 3.54816 11.5 3.63593L11.4961 3.63815L4.5 7.63593C4.49947 7.63623 4.49895 7.63654 4.49842 7.63684C4.34726 7.72448 4.22169 7.85021 4.13423 8.00151C4.04654 8.15321 4.00025 8.32528 4 8.5005V16.4993C4.00025 16.6745 4.04654 16.8466 4.13423 16.9983C4.22169 17.1496 4.34726 17.2753 4.49842 17.363C4.49895 17.3633 4.49947 17.3636 4.5 17.3639L11.5 21.3639C11.652 21.4516 11.8245 21.4979 12 21.4979C12.1755 21.4979 12.348 21.4516 12.5 21.3639L12.5039 21.3617L19.5 17.3639C19.5005 17.3636 19.5011 17.3633 19.5016 17.363C19.6527 17.2753 19.7783 17.1496 19.8658 16.9983C19.9535 16.8465 19.9998 16.6742 20 16.4989V8.50093C19.9998 8.32556 19.9535 8.15333 19.8658 8.00151C19.7783 7.85021 19.6527 7.72449 19.5016 7.63685C19.5011 7.63654 19.5005 7.63623 19.5 7.63593L12.5 3.63594C12.348 3.54817 12.1755 3.50195 12 3.50195Z" fill="white"/>
<path fill-rule="evenodd" clip-rule="evenodd" d="M2.40439 6.95916C2.68093 6.4811 3.29266 6.31773 3.77072 6.59428L12 11.3546L20.2293 6.59428C20.7073 6.31773 21.3191 6.4811 21.5956 6.95916C21.8721 7.43722 21.7088 8.04895 21.2307 8.32549L12.5007 13.3755C12.191 13.5547 11.809 13.5547 11.4993 13.3755L2.76928 8.32549C2.29121 8.04895 2.12785 7.43722 2.40439 6.95916Z" fill="white"/>
<path fill-rule="evenodd" clip-rule="evenodd" d="M12 11.5C12.5523 11.5 13 11.9477 13 12.5V22.58C13 23.1323 12.5523 23.58 12 23.58C11.4477 23.58 11 23.1323 11 22.58V12.5C11 11.9477 11.4477 11.5 12 11.5Z" fill="white"/>
</svg>
