<svg width="22" height="22" viewBox="0 0 22 22" fill="none" xmlns="http://www.w3.org/2000/svg">
<path d="M18.3333 -0.0032959H3.66667C2.69421 -0.0032959 1.76158 0.383013 1.07394 1.07065C0.386309 1.75828 0 2.69091 0 3.66337V18.33C0 19.3025 0.386309 20.2351 1.07394 20.9228C1.76158 21.6104 2.69421 21.9967 3.66667 21.9967H18.3333C19.3058 21.9967 20.2384 21.6104 20.9261 20.9228C21.6137 20.2351 22 19.3025 22 18.33V3.66337C22 2.69091 21.6137 1.75828 20.9261 1.07065C20.2384 0.383013 19.3058 -0.0032959 18.3333 -0.0032959ZM19.5556 18.33C19.5556 18.6542 19.4268 18.9651 19.1976 19.1943C18.9684 19.4235 18.6575 19.5523 18.3333 19.5523H3.66667C3.34251 19.5523 3.03164 19.4235 2.80243 19.1943C2.57321 18.9651 2.44444 18.6542 2.44444 18.33V3.66337C2.44444 3.33922 2.57321 3.02834 2.80243 2.79913C3.03164 2.56992 3.34251 2.44115 3.66667 2.44115H18.3333C18.6575 2.44115 18.9684 2.56992 19.1976 2.79913C19.4268 3.02834 19.5556 3.33922 19.5556 3.66337V18.33ZM17.1111 6.10782C17.1111 7.72858 16.4673 9.28297 15.3212 10.429C14.1752 11.5751 12.6208 12.2189 11 12.2189C9.37923 12.2189 7.82485 11.5751 6.67879 10.429C5.53274 9.28297 4.88889 7.72858 4.88889 6.10782C4.88889 5.78366 5.01766 5.47278 5.24687 5.24357C5.47608 5.01436 5.78696 4.88559 6.11111 4.88559C6.43526 4.88559 6.74614 5.01436 6.97535 5.24357C7.20456 5.47278 7.33333 5.78366 7.33333 6.10782C7.33333 7.08028 7.71964 8.01291 8.40727 8.70054C9.09491 9.38817 10.0275 9.77448 11 9.77448C11.9725 9.77448 12.9051 9.38817 13.5927 8.70054C14.2804 8.01291 14.6667 7.08028 14.6667 6.10782C14.6667 5.78366 14.7954 5.47278 15.0246 5.24357C15.2539 5.01436 15.5647 4.88559 15.8889 4.88559C16.213 4.88559 16.5239 5.01436 16.7531 5.24357C16.9823 5.47278 17.1111 5.78366 17.1111 6.10782Z" fill="#222221"/>
</svg>
