<svg width="29" height="29" viewBox="0 0 29 29" fill="none" xmlns="http://www.w3.org/2000/svg">
<path d="M21.75 3.625H7.25C6.28859 3.625 5.36656 4.00692 4.68674 4.68674C4.00692 5.36656 3.625 6.28859 3.625 7.25V21.75C3.625 22.7114 4.00692 23.6334 4.68674 24.3133C5.36656 24.9931 6.28859 25.375 7.25 25.375H21.75C22.7114 25.375 23.6334 24.9931 24.3133 24.3133C24.9931 23.6334 25.375 22.7114 25.375 21.75V7.25C25.375 6.28859 24.9931 5.36656 24.3133 4.68674C23.6334 4.00692 22.7114 3.625 21.75 3.625ZM22.9583 21.75C22.9583 22.0705 22.831 22.3778 22.6044 22.6044C22.3778 22.831 22.0705 22.9583 21.75 22.9583H7.25C6.92953 22.9583 6.62219 22.831 6.39558 22.6044C6.16897 22.3778 6.04167 22.0705 6.04167 21.75V7.25C6.04167 6.92953 6.16897 6.62219 6.39558 6.39558C6.62219 6.16897 6.92953 6.04167 7.25 6.04167H21.75C22.0705 6.04167 22.3778 6.16897 22.6044 6.39558C22.831 6.62219 22.9583 6.92953 22.9583 7.25V21.75ZM20.5417 9.66667C20.5417 11.269 19.9051 12.8057 18.7721 13.9388C17.6391 15.0718 16.1024 15.7083 14.5 15.7083C12.8977 15.7083 11.3609 15.0718 10.2279 13.9388C9.09486 12.8057 8.45833 11.269 8.45833 9.66667C8.45833 9.3462 8.58564 9.03885 8.81225 8.81225C9.03885 8.58564 9.3462 8.45833 9.66667 8.45833C9.98714 8.45833 10.2945 8.58564 10.5211 8.81225C10.7477 9.03885 10.875 9.3462 10.875 9.66667C10.875 10.6281 11.2569 11.5501 11.9367 12.2299C12.6166 12.9097 13.5386 13.2917 14.5 13.2917C15.4614 13.2917 16.3834 12.9097 17.0633 12.2299C17.7431 11.5501 18.125 10.6281 18.125 9.66667C18.125 9.3462 18.2523 9.03885 18.4789 8.81225C18.7055 8.58564 19.0129 8.45833 19.3333 8.45833C19.6538 8.45833 19.9611 8.58564 20.1878 8.81225C20.4144 9.03885 20.5417 9.3462 20.5417 9.66667Z" fill="#222221"/>
</svg>
