<svg width="24" height="25" viewBox="0 0 24 25" fill="none" xmlns="http://www.w3.org/2000/svg">
<path fill-rule="evenodd" clip-rule="evenodd" d="M12 3.5C7.02944 3.5 3 7.52944 3 12.5C3 17.4706 7.02944 21.5 12 21.5C16.9706 21.5 21 17.4706 21 12.5C21 7.52944 16.9706 3.5 12 3.5ZM1 12.5C1 6.42487 5.92487 1.5 12 1.5C18.0751 1.5 23 6.42487 23 12.5C23 18.5751 18.0751 23.5 12 23.5C5.92487 23.5 1 18.5751 1 12.5Z" fill="white"/>
<path fill-rule="evenodd" clip-rule="evenodd" d="M12 5.5C12.5523 5.5 13 5.94772 13 6.5V12.5C13 12.8466 12.8205 13.1684 12.5257 13.3507C12.2309 13.5329 11.8627 13.5494 11.5528 13.3944L7.55276 11.3944C7.05878 11.1474 6.85856 10.5468 7.10555 10.0528C7.35254 9.55881 7.95321 9.35858 8.44719 9.60557L11 10.882V6.5C11 5.94772 11.4477 5.5 12 5.5Z" fill="white"/>
</svg>
